<?xml version="1.0" encoding="utf-8"?>
<!-- Generator: Adobe Illustrator 26.0.0, SVG Export Plug-In . SVG Version: 6.00 Build 0)  -->
<svg version="1.1" id="Layer_1" xmlns="http://www.w3.org/2000/svg" xmlns:xlink="http://www.w3.org/1999/xlink" x="0px" y="0px"
	 viewBox="0 0 792 612" style="enable-background:new 0 0 792 612;" xml:space="preserve">
<style type="text/css">
	.st0{fill:#CCCCCC;stroke:#00A99D;stroke-miterlimit:10;}
	.st1{fill:#1A3331;}
	.st2{fill:#00A99D;}
	.st3{fill:#FFFFFF;}
</style>
<g>
	<path class="st0" d="M496.7,357.2"/>
	<g>
		<g>
			<path class="st1" d="M503.82,375.64l-1.48-3.83l7.84,1.35l0.5-29.94L496.7,357.2l-10.63,16.66c-4.46,6.99-9.72,13.54-15.64,19.46
				c-21.5,21.5-50.09,33.34-80.5,33.34c-30.41,0-59-11.84-80.5-33.34s-33.34-50.09-33.34-80.5s11.84-59,33.34-80.5
				c21.5-21.5,50.09-33.34,80.5-33.34c30.41,0,59,11.84,80.5,33.34c5.92,5.92,11.18,12.46,15.64,19.46l10.63,16.66l13.99-13.99
				l-4.37-10.51c2.02-4.7,4.24-9.31,6.65-13.77l3.08-5.7l-3.94-5.14c-29.39-38.36-73.92-60.36-122.18-60.36
				c-84.83,0-153.84,69.01-153.84,153.84c0,84.83,69.01,153.84,153.84,153.84c48.25,0,92.79-22,122.18-60.36l3.94-5.14l-3.08-5.7
				C509.52,389.1,506.45,382.43,503.82,375.64z"/>
			<path class="st1" d="M539.97,319.64c-0.12-2.22-0.19-4.46-0.19-6.71c0-8.21,0.81-16.23,2.34-23.99c-0.19,0-0.38-0.01-0.58-0.01
				c-21.57,0-43.14,0-64.71,0c-34.59,0-69.18,0-103.77,0c-7.91,0-15.82,0-23.73,0c-1.2,0-2.4,0.09-3.58,0.26l-1.44-6.15
				l-13.14,13.17l0,0c-4.71,4.37-7.69,10.31-7.39,16.72c0.62,13,11.22,24,25.54,24c21.57,0,43.14,0,64.71,0
				c34.59,0,69.18,0,103.77,0c7.91,0,15.82,0,23.73,0c0.19,0,0.39-0.01,0.58-0.01l13.99-13.99L539.97,319.64z"/>
		</g>
		<g>
			<path class="st2" d="M517.81,361.65l-7.13-18.44l-10.63,16.66c-4.46,6.99-9.72,13.54-15.64,19.46
				c-21.5,21.5-50.09,33.34-80.5,33.34c-30.41,0-59-11.84-80.5-33.34s-33.34-50.09-33.34-80.5s11.84-59,33.34-80.5
				c21.5-21.5,50.09-33.34,80.5-33.34c30.41,0,59,11.84,80.5,33.34c5.92,5.92,11.18,12.46,15.64,19.46l10.63,16.66l7.13-18.43
				c2.63-6.79,5.7-13.47,9.14-19.83l3.08-5.7l-3.94-5.14c-29.39-38.36-73.92-60.36-122.18-60.36
				c-84.83,0-153.84,69.01-153.84,153.84c0,84.83,69.01,153.84,153.84,153.84c48.25,0,92.79-22,122.18-60.36l3.94-5.14l-3.08-5.7
				C523.51,375.11,520.44,368.44,517.81,361.65z"/>
			<path class="st2" d="M556.12,274.95c-0.19,0-0.38-0.01-0.58-0.01c-21.57,0-43.14,0-64.71,0c-34.59,0-69.18,0-103.77,0
				c-7.91,0-15.82,0-23.73,0c-13.36,0-26.16,11.04-25.54,24c0.62,13,11.22,24,25.54,24c21.57,0,43.14,0,64.71,0
				c34.59,0,69.18,0,103.77,0c7.91,0,15.82,0,23.73,0c0.19,0,0.39-0.01,0.58-0.01c-1.53-7.76-2.34-15.78-2.34-23.99
				C553.77,290.73,554.58,282.71,556.12,274.95z"/>
		</g>
		<path class="st3" d="M405.19,159.49c-76.83,0-139.34,62.51-139.34,139.34c0,76.83,62.51,139.34,139.34,139.34
			c42.75,0,82.27-19.06,108.9-52.41c-1.89-3.63-3.66-7.34-5.32-11.11c-3.88,5.28-8.18,10.28-12.83,14.93
			c-24.24,24.24-56.47,37.59-90.75,37.59c-34.28,0-66.51-13.35-90.75-37.59c-24.24-24.24-37.59-56.47-37.59-90.75
			s13.35-66.51,37.59-90.75c24.24-24.24,56.47-37.59,90.75-37.59c34.28,0,66.51,13.35,90.75,37.59c4.65,4.65,8.95,9.66,12.83,14.93
			c1.65-3.77,3.43-7.48,5.32-11.11C487.46,178.55,447.93,159.49,405.19,159.49z"/>
		<path class="st3" d="M357.96,295.42c-0.91,0.96-1.46,1.99-1.42,2.69c0.17,3.65,3,7.33,8.06,7.33h173.1
			c-0.1-2.17-0.15-4.33-0.15-6.5s0.05-4.33,0.15-6.5h-173.1C362.29,292.44,359.68,293.61,357.96,295.42z"/>
	</g>
</g>
</svg>
